<?xml version="1.0" encoding="utf-8"?>
<!-- Generator: Adobe Illustrator 15.1.0, SVG Export Plug-In . SVG Version: 6.00 Build 0)  -->
<!DOCTYPE svg PUBLIC "-//W3C//DTD SVG 1.1//EN" "http://www.w3.org/Graphics/SVG/1.1/DTD/svg11.dtd">
<svg version="1.1" id="Layer_1" xmlns="http://www.w3.org/2000/svg" xmlns:xlink="http://www.w3.org/1999/xlink" x="0px" y="0px"
	 width="118.229px" height="95.485px" viewBox="0 0 118.229 95.485" enable-background="new 0 0 118.229 95.485"
	 xml:space="preserve">
<g>
	<defs>
		<rect id="SVGID_1_" y="0" width="118.229" height="95.485"/>
	</defs>
	<clipPath id="SVGID_2_">
		<use xlink:href="#SVGID_1_"  overflow="visible"/>
	</clipPath>
	<path clip-path="url(#SVGID_2_)" d="M47.836,81.386c-3.865,0-7,3.134-7,7.001c0,3.864,3.135,6.999,7,6.999c3.865,0,7-3.135,7-6.999
		C54.836,84.52,51.701,81.386,47.836,81.386"/>
	
		<circle clip-path="url(#SVGID_2_)" fill="none" stroke="#000000" stroke-width="0.2" stroke-miterlimit="10" cx="47.836" cy="88.386" r="7"/>
	<path clip-path="url(#SVGID_2_)" d="M83.988,81.386c-3.867,0-7,3.134-7,7.001c0,3.864,3.133,6.999,7,6.999c3.865,0,7-3.135,7-6.999
		C90.988,84.52,87.854,81.386,83.988,81.386"/>
	
		<circle clip-path="url(#SVGID_2_)" fill="none" stroke="#000000" stroke-width="0.2" stroke-miterlimit="10" cx="83.988" cy="88.386" r="7"/>
	<path clip-path="url(#SVGID_2_)" d="M117.372,8.016h-0.048h-6.39H35.898c-0.549,0-0.877,0.433-0.724,0.962l1.735,6.076
		c0.151,0.529,0.726,0.962,1.275,0.962h68.491c0.407,0,0.687,0.238,0.743,0.574l-9.869,47.636c-0.153,0.526-0.73,0.959-1.281,0.959
		H36.059c-0.55,0-1.121-0.435-1.27-0.963L21.049,1.063C20.9,0.534,20.329,0.1,19.779,0.1h-0.048H0.912H0.865
		c-0.042,0-0.072,0.018-0.111,0.023C0.686,0.133,0.617,0.14,0.572,0.161C0.211,0.288,0.016,0.639,0.135,1.063l1.704,6.074
		C1.987,7.666,2.559,8.1,3.109,8.1h8.448h2.104c0.55,0,1.121,0.434,1.269,0.963l13.742,63.159c0.147,0.528,0.719,0.963,1.268,0.963
		h0.048h72.264h0.046c0.551,0,1.127-0.433,1.282-0.959l14.51-63.251C118.245,8.448,117.922,8.016,117.372,8.016"/>
	<path clip-path="url(#SVGID_2_)" fill="none" stroke="#000000" stroke-width="0.2" stroke-miterlimit="10" d="M117.372,8.016
		h-0.048h-6.39H35.898c-0.549,0-0.877,0.433-0.724,0.962l1.735,6.076c0.151,0.529,0.726,0.962,1.275,0.962h68.491
		c0.407,0,0.687,0.238,0.743,0.574l-9.869,47.636c-0.153,0.526-0.73,0.959-1.281,0.959H36.059c-0.55,0-1.121-0.435-1.27-0.963
		L21.049,1.063C20.9,0.534,20.329,0.1,19.779,0.1h-0.048H0.912H0.865c-0.042,0-0.072,0.018-0.111,0.023
		C0.686,0.133,0.617,0.14,0.572,0.161C0.211,0.288,0.016,0.639,0.135,1.063l1.704,6.074C1.987,7.666,2.559,8.1,3.109,8.1h8.448
		h2.104c0.55,0,1.121,0.434,1.269,0.963l13.742,63.159c0.147,0.528,0.719,0.963,1.268,0.963h0.048h72.264h0.046
		c0.551,0,1.127-0.433,1.282-0.959l14.51-63.251C118.245,8.448,117.922,8.016,117.372,8.016z"/>
</g>
</svg>
