<?xml version="1.0" standalone="no"?>
<!DOCTYPE svg PUBLIC "-//W3C//DTD SVG 20010904//EN"
 "http://www.w3.org/TR/2001/REC-SVG-20010904/DTD/svg10.dtd">
<svg version="1.0" xmlns="http://www.w3.org/2000/svg"
 width="200.000000pt" height="200.000000pt" viewBox="0 0 200.000000 200.000000"
 preserveAspectRatio="xMidYMid meet">

<g transform="translate(0.000000,200.000000) scale(0.100000,-0.100000)"
fill="#FFFFFF" stroke="none">
<path d="M1366 1990 c-38 -12 -53 -26 -137 -137 -61 -80 -70 -96 -58 -107 8
-8 129 -97 270 -199 l257 -185 76 103 c92 123 101 147 84 201 -12 34 -34 54
-188 167 -162 119 -240 168 -265 166 -5 0 -23 -5 -39 -9z m219 -226 c96 -70
175 -130 175 -133 0 -14 -82 -116 -91 -113 -10 2 -325 227 -348 248 -12 11 -8
21 28 68 23 31 46 56 51 56 5 0 89 -57 185 -126z"/>
<path d="M1022 1577 c-27 -34 -185 -243 -352 -465 l-304 -403 -72 -331 c-51
-233 -70 -337 -63 -349 23 -44 43 -37 359 121 l305 153 356 471 355 471 -39
28 c-21 16 -42 27 -47 25 -5 -2 -82 -100 -171 -218 -90 -118 -232 -306 -316
-417 l-153 -203 -65 47 c-36 26 -65 49 -65 52 0 3 144 195 319 426 l319 420
-37 32 c-20 18 -39 33 -43 33 -3 0 -151 -191 -327 -425 l-321 -424 -70 51
c-39 28 -70 54 -70 58 0 4 142 195 315 425 173 229 315 420 315 425 0 4 -18
19 -39 33 l-40 26 -49 -62z m-400 -1058 c84 -62 161 -119 170 -128 17 -15 8
-21 -141 -95 l-158 -79 -47 32 c-26 18 -50 39 -52 46 -7 18 60 335 71 335 2 0
73 -50 157 -111z"/>
</g>
</svg>
