<?xml version="1.0" encoding="utf-8"?>
<!-- Generator: Adobe Illustrator 16.0.0, SVG Export Plug-In . SVG Version: 6.00 Build 0)  -->
<!DOCTYPE svg PUBLIC "-//W3C//DTD SVG 1.1//EN" "http://www.w3.org/Graphics/SVG/1.1/DTD/svg11.dtd">
<svg version="1.1" id="레이어_1" xmlns="http://www.w3.org/2000/svg" xmlns:xlink="http://www.w3.org/1999/xlink" x="0px"
	 y="0px" width="82.886px" height="82.958px" viewBox="0 0 82.886 82.958" enable-background="new 0 0 82.886 82.958"
	 xml:space="preserve">
<g>
	<defs>
		<rect id="SVGID_1_" width="82.886" height="82.958"/>
	</defs>
	<clipPath id="SVGID_2_">
		<use xlink:href="#SVGID_1_"  overflow="visible"/>
	</clipPath>
	<path clip-path="url(#SVGID_2_)" fill="#000000" d="M53.99,36.953c4.421,0,8.001-3.581,8.001-8c0-4.419-3.58-8-8.001-8
		c-4.418,0-7.999,3.581-7.999,8C45.991,33.372,49.572,36.953,53.99,36.953"/>
	<path clip-path="url(#SVGID_2_)" fill="#000000" d="M74.885,0c-4.418,0-7.999,3.581-7.999,8s3.581,8,7.999,8
		c4.421,0,8.001-3.581,8.001-8S79.306,0,74.885,0"/>
	<path clip-path="url(#SVGID_2_)" fill="#000000" d="M64.496,55.571c-2.252-2.252-5.939-2.252-8.197,0l-7.781,7.783
		c-5.552-3.089-11.813-7.188-16.723-12.097c-4.933-4.93-9.046-11.224-12.137-16.792l7.77-7.77c2.252-2.251,2.252-5.938,0-8.189
		L15.812,6.887c-2.254-2.25-5.94-2.25-8.193,0l-4.612,4.616c-1.54,1.544-2.44,3.487-2.717,5.504
		c-0.511,3.205-2.622,23.237,19.955,45.81c24.313,24.313,45.612,19.87,46.175,19.747c1.873-0.336,3.668-1.22,5.111-2.659l4.553-4.55
		c2.254-2.257,2.254-5.942,0-8.193L64.496,55.571z"/>
</g>
</svg>
