<?xml version="1.0" encoding="utf-8"?>
<!-- Generator: Adobe Illustrator 15.1.0, SVG Export Plug-In . SVG Version: 6.00 Build 0)  -->
<!DOCTYPE svg PUBLIC "-//W3C//DTD SVG 1.1//EN" "http://www.w3.org/Graphics/SVG/1.1/DTD/svg11.dtd">
<svg id="Layer_2" xmlns="http://www.w3.org/2000/svg" viewBox="0 0 168.69 161.93"><defs><style>.cls-1{fill:#fff;}</style></defs><g id="_Ñëîé_1"><g><g><g><path class="cls-1" d="M45.39,0c-3.7,0-6.7,3-6.7,6.7V28.7c0,3.7,3,6.7,6.7,6.7s6.7-3,6.7-6.7V6.7c0-3.7-3-6.7-6.7-6.7Z"/><path class="cls-1" d="M147.25,17.8h-12.78v10.9c0,6.16-5.01,11.17-11.17,11.17s-11.17-5.01-11.17-11.17v-10.9H56.56v10.9c0,6.16-5.01,11.17-11.17,11.17s-11.17-5.01-11.17-11.17v-10.9h-12.78C9.62,17.8,0,27.42,0,39.25v101.24c0,11.82,9.62,21.44,21.44,21.44h125.81c11.82,0,21.44-9.62,21.44-21.44V39.25c0-11.82-9.62-21.44-21.44-21.44Zm8.93,122.68c0,4.93-4.01,8.93-8.93,8.93H21.44c-4.93,0-8.93-4.01-8.93-8.93V61.3c0-.99,.8-1.79,1.79-1.79H154.4c.99,0,1.79,.8,1.79,1.79v79.18Z"/><path class="cls-1" d="M123.3,0c-3.7,0-6.7,3-6.7,6.7V28.7c0,3.7,3,6.7,6.7,6.7s6.7-3,6.7-6.7V6.7c0-3.7-3-6.7-6.7-6.7Z"/></g><rect class="cls-1" x="70.94" y="75.81" width="25.82" height="23.28"/><rect class="cls-1" x="110.92" y="75.81" width="25.82" height="23.28"/><rect class="cls-1" x="31.96" y="75.81" width="25.82" height="23.28" transform="translate(89.74 174.9) rotate(180)"/></g><g><rect class="cls-1" x="70.94" y="108.26" width="25.82" height="23.28"/><rect class="cls-1" x="110.92" y="108.26" width="25.82" height="23.28"/><rect class="cls-1" x="31.96" y="108.26" width="25.82" height="23.28" transform="translate(89.74 239.8) rotate(180)"/></g></g></g></svg>