<?xml version="1.0" standalone="no"?>
<!DOCTYPE svg PUBLIC "-//W3C//DTD SVG 20010904//EN"
 "http://www.w3.org/TR/2001/REC-SVG-20010904/DTD/svg10.dtd">
<svg version="1.0" xmlns="http://www.w3.org/2000/svg"
 width="114.000000pt" height="200.000000pt" viewBox="0 0 114.000000 200.000000"
 preserveAspectRatio="xMidYMid meet">

<g transform="translate(0.000000,200.000000) scale(0.100000,-0.100000)"
fill="#000000" stroke="none">
<path d="M84 1989 c-17 -5 -43 -21 -58 -35 -23 -24 -26 -34 -26 -98 l0 -71
392 -392 393 -393 -393 -393 -392 -392 0 -71 c0 -64 3 -74 26 -98 31 -31 84
-47 128 -39 24 4 127 101 488 462 376 376 458 463 466 494 22 81 25 77 -446
550 -241 241 -448 447 -462 456 -33 24 -77 32 -116 20z"/>
</g>
</svg>
