<?xml version="1.0" standalone="no"?>
<!DOCTYPE svg PUBLIC "-//W3C//DTD SVG 20010904//EN"
 "http://www.w3.org/TR/2001/REC-SVG-20010904/DTD/svg10.dtd">
<svg version="1.0" xmlns="http://www.w3.org/2000/svg"
 width="1604.000000pt" height="417.000000pt" viewBox="0 0 1604.000000 417.000000"
 preserveAspectRatio="xMidYMid meet">

<g transform="translate(0.000000,417.000000) scale(0.100000,-0.100000)"
fill="#000000" stroke="none">
<path class="blueBg_svg" d="M1930 4159 c-498 -36 -959 -248 -1315 -604 -270 -270 -456 -598 -549
-971 -80 -317 -80 -681 0 -998 148 -593 547 -1091 1092 -1365 715 -359 1604
-261 2232 246 98 80 281 268 353 365 202 271 329 566 394 918 25 135 25 535 0
670 -65 352 -192 647 -394 918 -72 97 -255 285 -353 365 -327 265 -739 426
-1166 457 -76 5 -150 9 -164 8 -14 0 -72 -4 -130 -9z m1468 -825 c145 -60 176
-248 59 -351 -84 -73 -202 -68 -282 12 -80 80 -85 198 -12 282 59 67 155 91
235 57z m-1721 -324 c128 -33 222 -89 276 -166 l31 -44 16 28 c52 85 191 166
330 193 84 16 286 16 370 0 272 -53 460 -239 509 -505 7 -39 11 -287 11 -723
l0 -663 -175 0 -175 0 0 608 c0 574 -1 613 -20 686 -46 182 -137 270 -301 292
-58 8 -152 -11 -205 -42 -80 -45 -141 -139 -169 -256 -12 -52 -15 -170 -15
-675 l0 -613 -175 0 -175 0 0 593 c0 336 -4 618 -10 652 -24 151 -88 251 -194
305 -64 32 -76 35 -155 34 -66 0 -98 -6 -138 -23 -61 -27 -136 -102 -163 -164
-49 -111 -50 -122 -50 -779 l0 -618 -175 0 -175 0 0 683 c0 659 1 685 21 757
87 316 348 482 728 464 57 -3 137 -14 178 -24z"/>
</g>
</svg>
