<?xml version="1.0" encoding="utf-8"?>
<!-- Generator: Adobe Illustrator 15.1.0, SVG Export Plug-In . SVG Version: 6.00 Build 0)  -->
<!DOCTYPE svg PUBLIC "-//W3C//DTD SVG 1.1//EN" "http://www.w3.org/Graphics/SVG/1.1/DTD/svg11.dtd">
<svg version="1.1" xmlns="http://www.w3.org/2000/svg" xmlns:xlink="http://www.w3.org/1999/xlink" x="0px" y="0px"
	 width="398.669px" height="380.894px" viewBox="0 0 398.669 380.894" enable-background="new 0 0 398.669 380.894"
	 xml:space="preserve">
<g id="Layer_1" display="none">
	<g display="inline">
		<defs>
			<rect id="SVGID_1_" width="398.669" height="380.894"/>
		</defs>
		<clipPath id="SVGID_2_">
			<use xlink:href="#SVGID_1_"  overflow="visible"/>
		</clipPath>
		<path clip-path="url(#SVGID_2_)" d="M293.232,375.666c24.442,12.85,40.474,1.202,35.806-26.015l-17.935-104.557l75.966-74.048
			c19.773-19.275,13.651-38.119-13.677-42.09l-104.979-15.255l-46.95-95.129c-12.221-24.763-32.036-24.763-44.256,0l-46.95,95.129
			L25.276,128.956c-27.327,3.971-33.45,22.815-13.676,42.09l75.965,74.048L69.632,349.651
			c-4.668,27.217,11.363,38.864,35.805,26.015l93.898-49.365L293.232,375.666z"/>
	</g>
</g>
<g id="Layer_2">
	<path fill="#fff"  stroke="#ddd" stroke-width="14" stroke-miterlimit="10" d="M133.019,116.479l26.868-54.439l21.797-43.406
		c0,0,17.358-28.233,36.738-0.287l48.854,98.132l89.021,12.936l15.881,2.382c0,0,45.267,8.874,4.662,46.007l-36.354,35.436
		l-31.725,30.923l8.233,48.002l9.316,54.353c0,0,6.975,40.613-31.09,26.367l-95.073-49.808l-94.897,49.73
		c0,0-35.012,15.582-31.604-23.831l17.885-104.813L14.255,168.53c0,0-18.754-20.778,2.384-32.798c0,0,7.241-4.226,20.142-5.268
		L133.019,116.479z"/>
</g>
</svg>
