<?xml version="1.0" standalone="no"?>
<!DOCTYPE svg PUBLIC "-//W3C//DTD SVG 20010904//EN"
 "http://www.w3.org/TR/2001/REC-SVG-20010904/DTD/svg10.dtd">
<svg version="1.0" xmlns="http://www.w3.org/2000/svg"
 width="1015.000000pt" height="920.000000pt" viewBox="0 0 1015.000000 920.000000"
 preserveAspectRatio="xMidYMid meet">

<g transform="translate(0.000000,920.000000) scale(0.100000,-0.100000)"
fill="#000000" stroke="none">
<path d="M4550 9149 c-924 -70 -1694 -406 -2139 -933 -208 -246 -278 -417
-381 -921 -78 -383 -123 -557 -215 -830 -110 -329 -221 -588 -411 -965 -196
-390 -353 -656 -707 -1200 -361 -554 -475 -785 -523 -1060 -24 -141 -15 -416
19 -560 89 -375 284 -698 631 -1046 441 -441 836 -727 1371 -989 656 -322
1342 -508 2095 -566 188 -14 645 -14 830 1 778 61 1496 271 2174 636 1046 564
1830 1308 2271 2158 509 978 562 2101 148 3146 -320 808 -900 1542 -1673 2117
-815 606 -1730 941 -2770 1013 -166 11 -565 11 -720 -1z"/>
</g>
</svg>
