<?xml version="1.0" encoding="utf-8"?>
<!-- Generator: Adobe Illustrator 15.1.0, SVG Export Plug-In . SVG Version: 6.00 Build 0)  -->
<!DOCTYPE svg PUBLIC "-//W3C//DTD SVG 1.1//EN" "http://www.w3.org/Graphics/SVG/1.1/DTD/svg11.dtd">
<svg version="1.1" xmlns="http://www.w3.org/2000/svg" xmlns:xlink="http://www.w3.org/1999/xlink" x="0px" y="0px"
	 width="148.191px" height="136.078px" viewBox="0 0 148.191 136.078" enable-background="new 0 0 148.191 136.078"
	 xml:space="preserve">
<g id="Layer_1" display="none">
	<g display="inline">
		<defs>
			<rect id="SVGID_1_" x="1.244" y="2.248" width="145.744" height="133.83"/>
		</defs>
		<clipPath id="SVGID_2_">
			<use xlink:href="#SVGID_1_"  overflow="visible"/>
		</clipPath>
		<path clip-path="url(#SVGID_2_)" fill-rule="evenodd" clip-rule="evenodd" fill="#000000" d="M74.115,136.078
			C44.976,119.868-0.566,77.767,1.299,40.374C3.226,1.741,52.686-14.705,74.115,25.549c21.432-40.254,70.89-23.808,72.816,14.825
			C148.797,77.767,103.255,119.868,74.115,136.078"/>
	</g>
</g>
<g id="Layer_2">
	<path fill="#FFF" stroke="rgba(0,0,0,0.2)" stroke-width="10" stroke-miterlimit="10" d="M76.945,30.224c0,0-9.19-20.233-31.679-20.233
		c0,0-31.598,2.628-31.598,35.081c0,0-2.968,38.145,63.277,81.13c0,0,61.449-37.29,63.279-80.845c0,0,0.976-29.455-29.769-35.365
		C110.456,9.991,90.122,7.122,76.945,30.224z"/>
</g>
</svg>
