<svg width="80" height="80" viewBox="0 0 80 80" fill="none" xmlns="http://www.w3.org/2000/svg">
<path d="M79.2824 32.7973C79.1978 32.3374 78.9349 31.9296 78.5509 31.6628C78.167 31.396 77.6931 31.2918 77.2326 31.3728C76.7819 31.4573 76.3829 31.7165 76.1225 32.094C75.8622 32.4715 75.7617 32.9366 75.8429 33.3879C76.2305 35.5553 76.4281 37.7524 76.4335 39.9542C76.4335 40.4149 76.6165 40.8568 76.9423 41.1826C77.2681 41.5083 77.7099 41.6914 78.1706 41.6914C78.6314 41.6914 79.0732 41.5083 79.399 41.1826C79.7248 40.8568 79.9078 40.4149 79.9078 39.9542C79.9097 37.5548 79.7004 35.1599 79.2824 32.7973Z" fill="white"/>
<path d="M57.1515 72.1258C55.767 72.8588 54.34 73.5085 52.8781 74.0714C52.4174 74.1543 52.0085 74.4169 51.7414 74.8013C51.4743 75.1857 51.3708 75.6605 51.4537 76.1212C51.5366 76.5819 51.7992 76.9908 52.1836 77.258C52.568 77.5251 53.0428 77.6286 53.5035 77.5457C53.7107 77.5788 53.9217 77.5788 54.1289 77.5457C55.7278 76.9342 57.2833 76.2145 58.7844 75.3916C58.9843 75.2859 59.1612 75.1415 59.3047 74.9667C59.4482 74.7918 59.5554 74.5902 59.6201 74.3735C59.6848 74.1568 59.7056 73.9294 59.6815 73.7045C59.6573 73.4797 59.5885 73.2619 59.4792 73.0639C59.3963 72.8429 59.2684 72.6416 59.1035 72.4727C58.9387 72.3039 58.7405 72.1711 58.5217 72.0829C58.3028 71.9947 58.0679 71.953 57.8321 71.9604C57.5962 71.9677 57.3644 72.0241 57.1515 72.1258Z" fill="white"/>
<path d="M68.6162 62.5369C67.5506 63.8593 66.3894 65.1017 65.142 66.2543C64.892 66.4953 64.72 66.8056 64.648 67.1452C64.5761 67.4849 64.6076 67.8383 64.7385 68.1599C64.8694 68.4815 65.0936 68.7565 65.3823 68.9494C65.6709 69.1423 66.0108 69.2443 66.358 69.2422C66.5827 69.2454 66.8059 69.2041 67.0146 69.1206C67.2233 69.0371 67.4134 68.9131 67.574 68.7558C68.9003 67.4937 70.1313 66.135 71.2567 64.6909C71.4218 64.516 71.5488 64.3087 71.6296 64.0821C71.7104 63.8555 71.7433 63.6147 71.7262 63.3747C71.709 63.1348 71.6422 62.901 71.53 62.6882C71.4178 62.4755 71.2627 62.2883 71.0744 62.1386C70.8861 61.989 70.6687 61.88 70.4361 61.8187C70.2035 61.7574 69.9607 61.7451 69.7231 61.7825C69.4855 61.82 69.2582 61.9063 69.0557 62.0362C68.8532 62.166 68.6799 62.3365 68.5468 62.5369H68.6162Z" fill="white"/>
<path d="M77.1983 48.6399C76.9793 48.576 76.7499 48.5559 76.5231 48.5807C76.2963 48.6055 76.0766 48.6747 75.8766 48.7844C75.6766 48.8941 75.5001 49.0421 75.3573 49.2199C75.2145 49.3978 75.1081 49.6021 75.0443 49.8211C74.5851 51.4715 74.0044 53.0856 73.3071 54.6503C73.2092 54.8572 73.1541 55.0818 73.1449 55.3105C73.1358 55.5392 73.1729 55.7674 73.2539 55.9815C73.335 56.1955 73.4584 56.391 73.6168 56.5563C73.7752 56.7216 73.9653 56.8532 74.1757 56.9433C74.4047 56.9921 74.6415 56.9921 74.8705 56.9433C75.2096 56.9445 75.5415 56.8465 75.8255 56.6612C76.1095 56.476 76.3331 56.2118 76.4687 55.9011C77.2386 54.2037 77.8774 52.4498 78.3795 50.6549C78.4683 50.2323 78.3965 49.7918 78.1781 49.4192C77.9598 49.0467 77.6104 48.7688 77.1983 48.6399Z" fill="white"/>
<path d="M74.6965 24.3201H74.9397C75.1887 24.279 75.4259 24.1842 75.6345 24.0421H75.8082C76.071 23.7959 76.2834 23.5009 76.4336 23.1736L79.9079 12.7508C79.9831 12.5227 80.0127 12.282 79.995 12.0424C79.9772 11.8028 79.9125 11.5691 79.8044 11.3546C79.6963 11.14 79.5471 10.9489 79.3651 10.792C79.1832 10.6352 78.9721 10.5157 78.744 10.4404C78.5159 10.3652 78.2751 10.3355 78.0356 10.3533C77.796 10.371 77.5623 10.4358 77.3477 10.5439C77.1332 10.6519 76.9421 10.8012 76.7852 10.9832C76.6284 11.1651 76.5089 11.3762 76.4336 11.6043L74.1753 18.3096C70.4479 12.6486 65.3651 8.00861 59.3887 4.8111C53.4123 1.6136 46.7318 -0.0400813 39.9539 0.000294751C29.3575 0.000294751 19.195 4.20971 11.7022 11.7025C4.20942 19.1953 0 29.3578 0 39.9542C0 50.5507 4.20942 60.7131 11.7022 68.2059C19.195 75.6987 29.3575 79.9082 39.9539 79.9082C41.556 79.9032 43.1565 79.8104 44.7484 79.6302C45.2066 79.5694 45.623 79.3319 45.9086 78.9684C46.1942 78.605 46.3264 78.1443 46.2771 77.6846C46.2516 77.457 46.1804 77.2369 46.0679 77.0375C45.9553 76.838 45.8037 76.6633 45.6221 76.5238C45.4404 76.3843 45.2325 76.2829 45.0107 76.2257C44.789 76.1685 44.558 76.1566 44.3315 76.1907C42.907 76.1907 41.4131 76.4339 39.9539 76.4339C30.2789 76.4339 21.0002 72.5905 14.1589 65.7492C7.31764 58.908 3.47425 49.6292 3.47425 39.9542C3.47425 30.2792 7.31764 21.0005 14.1589 14.1592C21.0002 7.31793 30.2789 3.47455 39.9539 3.47455C46.2805 3.41656 52.516 4.9833 58.0637 8.02482C63.6115 11.0663 68.2857 15.4809 71.6391 20.8458H64.2737C64.0416 20.8305 63.8089 20.8649 63.5912 20.9467C63.3735 21.0286 63.1758 21.1561 63.0113 21.3205C62.8468 21.485 62.7194 21.6827 62.6375 21.9004C62.5556 22.1182 62.5212 22.3509 62.5366 22.583C62.5366 23.0437 62.7196 23.4855 63.0454 23.8113C63.3711 24.1371 63.813 24.3201 64.2737 24.3201H74.6965Z" fill="white"/>
<path d="M31.2684 36.48C30.5041 37.2443 29.4966 38.1824 28.2111 39.2594L20.0119 47.3196C19.7073 47.5748 19.4488 47.8804 19.2475 48.2229C19.1223 48.4592 19.0511 48.7202 19.0391 48.9873V50.2033C19.0477 50.4401 19.1456 50.6649 19.3132 50.8325C19.4808 51 19.7055 51.098 19.9424 51.1066H36.6883C36.8114 51.1077 36.9335 51.0836 37.0471 51.0358C37.1606 50.988 37.2631 50.9175 37.3484 50.8286C37.436 50.7515 37.5038 50.6544 37.5461 50.5456C37.5885 50.4368 37.604 50.3194 37.5916 50.2033V48.6399C37.604 48.5238 37.5885 48.4064 37.5461 48.2976C37.5038 48.1887 37.436 48.0917 37.3484 48.0145C37.1647 47.8567 36.9304 47.7704 36.6883 47.7713H24.8411L32.137 40.3711C33.0968 39.5502 33.9913 38.6558 34.8122 37.696C35.4958 36.8843 36.0469 35.9697 36.4451 34.986C36.8441 34.0166 37.0449 32.977 37.0357 31.9287C37.0462 30.5785 36.7366 29.245 36.1324 28.0375C35.4905 26.8145 34.4986 25.8106 33.2835 25.1539C31.7597 24.3745 30.06 24.0035 28.3501 24.0769C27.028 24.0506 25.7148 24.299 24.4936 24.8065C23.4511 25.237 22.5146 25.889 21.749 26.7173C21.0124 27.4761 20.4337 28.3736 20.0466 29.3577C19.6733 30.2878 19.4618 31.2748 19.4212 32.2761C19.4243 32.3749 19.4475 32.4721 19.4893 32.5617C19.5311 32.6512 19.5907 32.7314 19.6644 32.7973C19.8161 32.9355 20.0151 33.0102 20.2203 33.0057H22.2006C22.4134 32.9943 22.6184 32.9219 22.7913 32.7973C22.9041 32.7236 22.9997 32.6265 23.0717 32.5126C23.1436 32.3987 23.1902 32.2707 23.2082 32.1371C23.3282 31.2697 23.6111 30.4328 24.042 29.6704C24.433 28.9503 25.0243 28.359 25.7444 27.968C26.543 27.5345 27.4417 27.3188 28.3501 27.3427C28.9861 27.3098 29.6222 27.4069 30.2195 27.6279C30.8168 27.8489 31.3628 28.1892 31.8243 28.6281C32.2542 29.093 32.584 29.6413 32.7932 30.239C33.0024 30.8366 33.0865 31.4709 33.0403 32.1024C33.0445 32.8556 32.8906 33.6012 32.5887 34.2912C32.2632 35.084 31.8179 35.8222 31.2684 36.48Z" fill="white"/>
<path d="M60.556 41.4481H57.0817V25.3623C57.0867 25.247 57.0677 25.1318 57.0258 25.0241C56.9839 24.9165 56.9202 24.8187 56.8385 24.737C56.7581 24.6535 56.6606 24.5886 56.5526 24.5466C56.4446 24.5046 56.3288 24.4866 56.2132 24.4938H53.5032C53.2378 24.4741 52.9717 24.5209 52.729 24.6302C52.4864 24.7394 52.2748 24.9074 52.1135 25.1191L40.718 41.2049C40.5786 41.4066 40.473 41.6295 40.4053 41.8651C40.3825 42.0264 40.3825 42.1901 40.4053 42.3515V43.8801C40.4003 43.9955 40.4193 44.1107 40.4612 44.2184C40.5031 44.326 40.5668 44.4238 40.6485 44.5055C40.823 44.6556 41.0437 44.7415 41.2739 44.7487H53.5727V50.2033C53.5698 50.3184 53.5897 50.433 53.6315 50.5404C53.6732 50.6477 53.7359 50.7457 53.8159 50.8286C53.9012 50.9175 54.0037 50.988 54.1172 51.0358C54.2308 51.0836 54.3529 51.1077 54.476 51.1066H56.3521C56.4704 51.1094 56.5879 51.086 56.6961 51.0379C56.8042 50.9899 56.9003 50.9184 56.9775 50.8286C57.0651 50.7515 57.1329 50.6544 57.1752 50.5456C57.2176 50.4367 57.2331 50.3194 57.2207 50.2033V44.7487H60.6949C60.9251 44.7415 61.1458 44.6556 61.3203 44.5055C61.4019 44.4238 61.4657 44.326 61.5076 44.2184C61.5494 44.1107 61.5685 43.9955 61.5635 43.8801V42.3167C61.5707 42.2011 61.5527 42.0852 61.5107 41.9773C61.4687 41.8693 61.4038 41.7717 61.3203 41.6913C61.2218 41.5924 61.1009 41.5186 60.9679 41.4762C60.8348 41.4339 60.6935 41.4243 60.556 41.4481ZM53.6075 41.4481H44.3659L53.5032 28.4892L53.6075 41.4481Z" fill="white"/>
</svg>
