<?xml version="1.0" encoding="utf-8"?>
<!-- Generator: Adobe Illustrator 15.1.0, SVG Export Plug-In . SVG Version: 6.00 Build 0)  -->
<!DOCTYPE svg PUBLIC "-//W3C//DTD SVG 1.1//EN" "http://www.w3.org/Graphics/SVG/1.1/DTD/svg11.dtd">
<svg version="1.1" id="Layer_1" xmlns="http://www.w3.org/2000/svg" xmlns:xlink="http://www.w3.org/1999/xlink" x="0px" y="0px"
	 width="612px" height="792px" viewBox="0 0 612 792" enable-background="new 0 0 612 792" xml:space="preserve">
<path stroke="#ffffff" stroke-width="8" stroke-miterlimit="10" d="M308,133.696c70.847,0,134.989,28.717,181.419,75.147
	c46.431,46.43,75.147,110.572,75.147,181.419s-28.717,134.989-75.147,181.419c-46.43,46.431-110.572,75.147-181.419,75.147
	c-20.071,0-39.656-2.328-58.496-6.728c-17.574-4.104-34.479-10.031-50.506-17.57L72.945,657.824
	c-9.489,2.657-18.13-6.161-15.281-15.594l34.312-113.613c-12.463-19.414-22.375-40.584-29.262-63.037
	c-7.333-23.908-11.28-49.203-11.28-75.317c0-70.848,28.718-134.989,75.147-181.419C173.011,162.413,237.152,133.696,308,133.696
	L308,133.696z M470.046,228.216c-41.47-41.47-98.762-67.121-162.046-67.121s-120.576,25.65-162.046,67.121
	s-67.12,98.762-67.12,162.046c0,23.513,3.498,46.104,9.996,67.289c6.768,22.064,16.747,42.68,29.385,61.296l3.687,5.432
	l-30.167,99.887l109.903-30.772l4.688,2.325c15.514,7.691,32.057,13.685,49.386,17.732c16.742,3.909,34.244,5.979,52.288,5.979
	c63.284,0,120.576-25.65,162.046-67.121c41.471-41.47,67.121-98.762,67.121-162.046S511.517,269.687,470.046,228.216
	L470.046,228.216z"/>
<path stroke="#ffffff" stroke-width="8" stroke-miterlimit="10" d="M272.88,324.442c-1.67,11.416-12.277,19.316-23.693,17.647
	c-11.416-1.669-19.317-12.277-17.647-23.693c2.868-19.117,12.209-35.708,25.748-47.485c13.427-11.68,30.951-18.604,50.366-18.556
	c21.359,0.053,40.65,8.82,54.566,22.978c13.879,14.12,22.463,33.536,22.463,54.942c0,15.327-4.438,29.695-12.093,41.856
	c-7.866,12.497-19.198,22.582-32.651,28.89c-3.665,1.718-6.552,4.236-8.486,7.277c-1.937,3.042-2.996,6.726-3.007,10.772
	l-0.023,8.852c0,11.506-9.327,20.834-20.833,20.834c-11.506,0-20.834-9.328-20.834-20.834l0.023-8.852
	c0.032-12.155,3.396-23.502,9.542-33.158c6.14-9.644,14.979-17.483,25.972-22.637c6.128-2.874,11.336-7.54,15.004-13.367
	c3.518-5.588,5.557-12.319,5.557-19.633c0-10.102-3.963-19.175-10.371-25.694c-6.396-6.506-15.178-10.535-24.828-10.56
	c-8.846-0.022-16.818,3.122-22.914,8.426C278.517,307.859,274.215,315.542,272.88,324.442L272.88,324.442z"/>
<path fill-rule="evenodd" clip-rule="evenodd" stroke="#ffffff" stroke-width="8" stroke-miterlimit="10" d="M307.646,472.516
	c15.368,0,27.826,12.459,27.826,27.828c0,15.368-12.458,27.827-27.826,27.827c-15.369,0-27.828-12.459-27.828-27.827
	C279.817,484.975,292.276,472.516,307.646,472.516L307.646,472.516z"/>
</svg>
